<svg width="110" height="104" viewBox="0 0 110 104" fill="none" xmlns="http://www.w3.org/2000/svg">
<path d="M37.6655 99.8027C22.9831 94.8801 14.1525 80.4534 15.6928 65.6345C15.8738 65.5573 16.0559 65.4824 16.2315 65.3998C18.2031 64.4763 19.843 63.1857 21.0505 61.6299C22.2037 60.1512 22.9657 58.4303 23.2486 56.5628C23.318 55.7034 23.4079 54.7202 23.4903 53.6522C23.938 47.9756 24.2469 39.9436 20.8695 35.9988C20.8467 35.976 20.8207 35.9521 20.7947 35.9293C18.396 33.6793 14.2696 34.8559 10.4185 37.7849C8.8046 39.0126 7.23729 40.5509 5.86725 42.274C4.19371 44.3774 2.81391 46.7556 1.99557 49.1859C1.24118 51.1263 0.88349 53.0438 0.852057 54.8592C0.816288 56.8485 1.17397 58.7139 1.83515 60.3501C1.96088 60.6597 2.10071 60.9585 2.24703 61.2507C-0.0432416 78.7205 10.2256 95.9285 27.5202 101.728C36.2001 104.638 45.1943 104.182 53.0959 101.071C48.0839 101.879 42.8129 101.527 37.6655 99.8027Z" fill="url(#paint0_linear_57_5098)"/>
<path d="M108.714 60.975C107.226 52.2923 102.754 44.8752 96.5378 39.5908C99.4979 43.4705 101.596 48.1008 102.48 53.2494C104.755 66.5191 98.31 79.2608 87.303 85.6012C86.0565 85.3937 84.7429 85.4263 83.4172 85.6729C83.4151 85.6675 83.4151 85.6653 83.4151 85.6599C83.3891 85.6664 83.3663 85.6761 83.3425 85.6838C83.3316 85.6881 83.3197 85.6881 83.3067 85.6903C83.3089 85.6924 83.3089 85.6924 83.3121 85.6979C75.8224 88.8703 62.471 87.9946 62.0526 88.289C61.7198 89.2233 75.1926 90.8997 83.4346 88.6899C83.4595 89.2972 83.4866 89.9056 83.5115 90.5129C74.8881 93.5941 60.3574 91.9296 59.9737 92.2045C59.6095 93.1541 74.2562 95.6159 83.6373 93.4974C83.66 94.1025 83.6871 94.7131 83.7099 95.3171C73.9516 98.3179 58.2416 95.869 57.8947 96.1222C57.4915 97.0934 73.3175 100.347 83.8378 98.32C83.8627 98.9328 83.8877 99.5433 83.9148 100.153C73.0151 103.059 56.1215 99.8182 55.8072 100.055C55.3682 101.05 72.3778 105.094 84.0372 103.155C84.0372 103.155 84.0372 103.155 84.0394 103.157C84.0416 103.155 84.0448 103.155 84.047 103.155C84.0958 103.151 84.15 103.143 84.1977 103.138C84.1977 103.131 84.1955 103.127 84.1955 103.12C88.4921 102.229 91.9302 99.8182 93.4899 96.9033C104.784 89.1984 111.179 75.3529 108.714 60.975Z" fill="url(#paint1_linear_57_5098)"/>
<path d="M27.4994 19.2005C40.7944 7.4073 61.0416 8.54045 72.9612 21.6482L68.7676 25.3671C76.9977 31.3077 86.3116 35.1309 95.6027 36.6497C95.2288 27.2205 92.5776 17.4905 87.6957 8.57847L83.4848 12.3136C69.7204 -2.88338 46.2876 -4.21099 30.9082 9.43023C24.0537 15.511 19.9522 23.5451 18.6895 31.9606C20.4941 27.2064 23.4348 22.8053 27.4994 19.2005Z" fill="url(#paint2_linear_57_5098)"/>
<defs>
<linearGradient id="paint0_linear_57_5098" x1="0.849889" y1="69.2152" x2="53.0955" y2="69.2152" gradientUnits="userSpaceOnUse">
<stop stop-color="#8DC63F"/>
<stop offset="1" stop-color="#39B54A"/>
</linearGradient>
<linearGradient id="paint1_linear_57_5098" x1="55.7988" y1="71.6324" x2="109.24" y2="71.6324" gradientUnits="userSpaceOnUse">
<stop stop-color="#8DC63F"/>
<stop offset="1" stop-color="#39B54A"/>
</linearGradient>
<linearGradient id="paint2_linear_57_5098" x1="18.6893" y1="18.3248" x2="95.6025" y2="18.3248" gradientUnits="userSpaceOnUse">
<stop stop-color="#8DC63F"/>
<stop offset="1" stop-color="#39B54A"/>
</linearGradient>
</defs>
</svg>
