<svg width="147" height="32" viewBox="0 0 147 32" fill="none" xmlns="http://www.w3.org/2000/svg">
<path d="M0.413329 29.8053L1.03133 24.306C2.68066 25.7732 5.85413 27.2796 10.0589 27.2796C13.2741 27.2796 15.7461 26.3427 15.7461 23.7757C15.7461 20.761 12.5309 19.7024 8.82093 18.4788C4.49293 17.0529 0 15.627 0 10.6168C0 6.86947 2.5972 2.14404 10.4285 2.14404C14.3035 2.14404 18.0532 3.32638 19.5793 4.26322L19.0845 9.23415C16.076 7.64526 13.4788 6.66718 10.6749 6.66718C8.20293 6.66718 5.02748 7.441 5.02748 10.0492C5.02748 12.4532 7.74787 13.39 10.9631 14.3681C15.6209 15.7527 21.1432 17.3416 21.1432 23.6147C21.1432 26.7925 19.7423 31.8027 9.93174 31.8027C5.60573 31.8007 2.1024 30.8226 0.413329 29.8053Z" fill="#202020"/>
<path d="M37.5619 31.2315V20.3547C37.5619 16.2814 36.3259 14.5295 33.2339 14.5295C31.2547 14.5295 29.9372 15.2208 28.9059 16.5249V31.2315H24.248V0.677246H28.9059V12.4103C30.1836 11.3104 31.833 10.6171 33.687 10.6171C39.9524 10.6171 42.2198 14.61 42.2198 20.3528V31.2295H37.5619V31.2315Z" fill="#202020"/>
<path d="M49.7251 21.8612C50.3034 26.2213 53.2702 27.769 56.3205 27.769C58.2162 27.769 60.7717 27.1169 62.5025 26.2625L62.8323 30.0924C61.2665 30.8662 58.9177 31.64 55.9906 31.64C48.6123 31.64 44.9023 26.7928 44.9023 21.0893C44.9023 15.4683 48.4474 10.6191 54.7943 10.6191C59.9053 10.6191 63.7385 13.9599 63.7385 19.3374C63.7385 20.1525 63.6153 20.9676 63.4503 21.8631H49.7251V21.8612ZM49.9298 18.7246H58.9574C58.9574 16.6055 57.8029 14.5295 54.8778 14.5295C52.0322 14.5295 50.4663 16.2402 49.9298 18.7246Z" fill="#202020"/>
<path d="M73.5736 31.638H71.9243C68.1746 31.638 66.6484 29.2341 66.6484 26.4648V0.677246H71.348V24.3869C71.348 27.6864 71.7594 27.8494 74.0267 27.8494L73.5736 31.638Z" fill="#202020"/>
<path d="M81.8052 14.7318V31.2315H77.1474V14.7318H74.0156L74.5104 10.9844H77.1494V6.09597C77.1494 3.24422 78.7569 0.677246 82.0139 0.677246C84.6111 0.677246 85.2708 0.84026 86.5068 1.00327L86.0537 4.87435C85.1476 4.63082 84.2395 4.63082 83.7467 4.63082C82.0973 4.63082 81.8092 5.32411 81.8092 8.33692V10.9844H86.632V14.7318H81.8052Z" fill="#202020"/>
<path d="M89.25 31.2314V2.71387H93.1647V27.7276H106.395V31.2314H89.25Z" fill="#202020"/>
<path d="M108.521 6.78921V2.71387H112.231V6.78724H108.521V6.78921ZM108.521 31.2314V11.2691H112.231V31.2314H108.521Z" fill="#202020"/>
<path d="M121.506 14.121V31.2315H117.796V14.121H114.293L114.788 11.2692H117.796V6.21774C117.796 2.99872 119.404 0.677246 122.494 0.677246C124.843 0.677246 125.709 0.881503 126.699 1.20753L126.12 4.30282C125.214 4.01804 124.431 3.93555 123.648 3.93555C121.711 3.93555 121.504 4.75062 121.504 8.824V11.2692H126.945V14.121H121.506Z" fill="#202020"/>
<path d="M131.252 21.25C131.789 26.7905 135.004 28.3794 138.837 28.3794C140.691 28.3794 142.835 28.0121 144.65 27.197L145.145 30.09C143.579 30.7833 141.311 31.6377 138.384 31.6377C131.254 31.6377 127.461 26.8298 127.461 21.087C127.461 15.5052 131.087 10.8623 137.353 10.8623C142.382 10.8623 146.051 13.9183 146.051 19.2958C146.051 19.8654 146.009 20.5587 145.886 21.252H131.252V21.25ZM131.582 18.7243H142.217C142.217 15.9138 140.652 14.1206 137.271 14.1206C133.973 14.1206 132.325 15.8313 131.582 18.7243Z" fill="#202020"/>
</svg>
